<svg width="24" height="24" viewBox="0 0 24 24" fill="none" xmlns="http://www.w3.org/2000/svg">
<path d="M21.5 6.27993V17.7099C21.5 17.8899 21.41 18.0499 21.26 18.1399L18.37 19.8699C18.21 19.9599 18.02 19.9599 17.86 19.8699L8.25 14.2799C8.1 14.1899 8 14.0299 8 13.8499V12.5199C8 12.1299 8.41999 11.8899 8.75999 12.0899L17.25 17.1799C17.58 17.3799 18.01 17.1399 18.01 16.7499V8.41992C18.01 8.23992 17.92 8.07993 17.77 7.98993L13.69 5.53992C13.37 5.34992 13.37 4.87992 13.69 4.67992L16.26 3.12993C16.42 3.02993 16.62 3.02993 16.78 3.12993L21.28 5.82993C21.41 5.93993 21.5 6.10993 21.5 6.27993Z" fill="black"/>
<path d="M10.79 18.4299L6.76001 20.85C6.60001 20.95 6.40002 20.95 6.25002 20.85L1.75002 18.15C1.60002 18.06 1.51001 17.9 1.51001 17.72V6.28995C1.51001 6.10995 1.60002 5.94996 1.75002 5.85996L6.25002 3.15996C6.41002 3.05996 6.61001 3.05996 6.76001 3.15996L16.26 8.85996C16.41 8.94996 16.5 9.10995 16.5 9.28995V14.12C16.5 14.51 16.08 14.75 15.74 14.55L7.25002 9.45996C6.92002 9.25996 6.49002 9.49996 6.49002 9.88996V14.72C6.49002 14.9 6.58001 15.06 6.73001 15.15L10.77 17.58C11.11 17.77 11.11 18.2299 10.79 18.4299Z" fill="black"/>
</svg>
